<?xml version="1.0" encoding="utf-8"?>
<!-- Generator: Adobe Illustrator 21.0.2, SVG Export Plug-In . SVG Version: 6.00 Build 0)  -->
<svg version="1.1" id="Layer_1" xmlns="http://www.w3.org/2000/svg" xmlns:xlink="http://www.w3.org/1999/xlink" x="0px" y="0px"
	 viewBox="0 0 474.9 288.5" style="enable-background:new 0 0 474.9 288.5;" xml:space="preserve">
<style type="text/css">
	.st0{fill:#F1B4B1;}
	.st1{fill:#C5164A;}
	.st2{fill:#21201F;}
	.st3{fill:#E21F26;}
	.st4{fill:#01B4C0;}
	.st5{fill:#C5E4EA;}
	.st6{fill:#336080;}
	.st7{fill:#336081;}
	.st8{fill:#003C57;}
	.st9{fill:#E6E460;}
	.st10{fill:#DCDDDE;}
	.st11{fill:#AAC6CC;}
	.st12{fill:#179CAA;}
</style>
<title>Zola_Logo_ZOLA &amp;amp; REGISTRY</title>
<path class="st0" d="M233.3,8.5c0.4-0.4,0.9-0.9,1.3-1.3l0.1,0.2c-0.4,0.4-0.9,0.8-1.3,1.3L233.3,8.5z"/>
<path class="st0" d="M233.4,8.5c0.4-0.4,0.9-0.9,1.3-1.3l0,0C234.2,7.7,233.8,8.1,233.4,8.5z"/>
<path class="st0" d="M235.9,8.5c-0.4-0.4-0.7-0.7-1.1-1.1l0.1-0.2c0.4,0.3,0.7,0.7,1.1,1.1L235.9,8.5z"/>
<path class="st0" d="M235.9,8.5c-0.4-0.4-0.7-0.7-1.1-1.1C235.2,7.8,235.6,8.1,235.9,8.5z"/>
<polygon class="st1" points="234.6,7.3 234.7,7.2 234.9,7.3 234.8,7.5 "/>
<path class="st1" d="M234.9,7.4l-0.2-0.2l0,0L234.9,7.4z"/>
<path class="st2" d="M85.9,202.3v9.9c-0.1,2.1-1.8,3.8-3.9,3.7H6.8c-2.1,0-3.8-1.7-3.8-3.8c0,0,0-0.1,0-0.1v-11.3
	c0-0.9,0.4-1.8,1.1-2.5l53.8-60H3.7c-2.1,0-3.7-1.6-3.7-3.7c0,0,0,0,0,0l0.1-10.2c0-2.1,1.7-3.8,3.8-3.7c0,0,0,0,0,0l75.2,0.1
	c2.1,0,3.8,1.7,3.7,3.8c0,0,0,0,0,0v10.7c0.1,1-0.3,2.1-1,2.9l-53.7,60.3h54C84.2,198.5,85.9,200.2,85.9,202.3
	C85.9,202.3,85.9,202.3,85.9,202.3"/>
<path class="st2" d="M176.1,217.2c-27.1-0.2-48.8-22.3-48.6-49.4s22.3-48.8,49.4-48.6s48.8,22.3,48.6,49.4c0,0,0,0,0,0
	C225.2,195.6,203.1,217.3,176.1,217.2 M176.7,137.6c-16.9-0.1-30.7,13.5-30.8,30.4c-0.1,16.9,13.5,30.7,30.4,30.8
	c16.9,0.1,30.6-13.5,30.8-30.3C207.1,151.5,193.5,137.8,176.7,137.6"/>
<path class="st2" d="M336.4,200.8v12.7c0,1.4-1.5,2.6-3.2,2.5h-52.6c-1.4,0-2.5-1.1-2.5-2.5c0,0,0,0,0,0v-90.2
	c0-1.4,1.8-2.5,3.2-2.5H294c1.4,0,2.5,1.1,2.5,2.5c0,0,0,0,0,0v75h36.9C335,198.3,336.4,199.5,336.4,200.8"/>
<path class="st2" d="M472.2,216h-13.7c-1.1,0-2-0.7-2.5-1.6l-8.2-19.2h-44.6l-8.6,19.3c-0.4,1-1.4,1.6-2.5,1.6h-13.9
	c-1.5,0-2.7-1.2-2.7-2.8c0-0.4,0.1-0.8,0.2-1.1l40.9-89.6c0.4-1,1.3-1.6,2.3-1.7h14.3c1.1,0.1,2,0.8,2.3,1.8l39.2,89.5
	c0.6,1.4,0,3-1.4,3.6C472.9,215.9,472.6,216,472.2,216 M440,177.5l-14.2-32.4l-14.7,32.4H440z"/>
<path class="st2" d="M113.1,286.7c0.3,0.5,0.3,1.1-0.2,1.5c-0.2,0.1-0.4,0.2-0.6,0.2h-3.3c-0.3,0-0.7-0.2-0.8-0.4l-4.2-5.6h-5.8v5.3
	c0,0.4-0.3,0.7-0.7,0.7c0,0,0,0,0,0H94c-0.4,0-0.7-0.3-0.7-0.7l0,0v-24.4c0-0.4,0.3-0.7,0.7-0.7c0,0,0,0,0,0h9.6
	c2.6,0,5.1,0.9,7,2.6c3.7,4.1,3.7,10.4,0,14.5c-0.5,0.5-1.1,0.9-1.7,1.3L113.1,286.7z M98.1,277.6h5.7c1.3,0,2.6-0.5,3.6-1.3
	c1.7-2.2,1.7-5.3,0-7.6c-1-0.8-2.3-1.3-3.6-1.3h-5.7L98.1,277.6z"/>
<path class="st2" d="M139.7,267.4v5.6h10.1c0.4,0,0.7,0.3,0.7,0.7l0,0v3.4c0,0.4-0.3,0.7-0.7,0.7h0h-10.1v5.8h13.1
	c0.4,0,0.7,0.3,0.7,0.7l0,0v3.4c0,0.4-0.3,0.7-0.7,0.7h0h-17.2c-0.4,0-0.7-0.3-0.7-0.7l0,0v-24.3c0-0.4,0.3-0.7,0.7-0.7h0h2.1
	c0.1,0,0.2-0.1,0.3-0.1h14.8c0.4,0,0.7,0.3,0.7,0.7l0,0v3.4c0,0.4-0.3,0.7-0.7,0.7h0L139.7,267.4z"/>
<path class="st2" d="M194.5,275v8.5l0,0v3.8c0,0.5-0.3,1-0.7,1h-3.4c-0.4,0-0.6-0.4-0.7-0.9c-6.7,2.9-14.4-0.2-17.3-6.9
	c-0.9-2.1-1.2-4.4-1-6.7c0.8-7.2,7.4-12.4,14.6-11.6c2.9,0.3,5.6,1.6,7.7,3.6c0.5,0.5,0.5,1.3,0,1.8c0,0,0,0,0,0l-1.6,1.5
	c-0.5,0.5-1.3,0.5-1.8,0c-3.4-3.2-8.7-3.1-11.9,0.3c-3.2,3.4-3.1,8.7,0.3,11.9c3,2.9,7.7,3.1,11,0.5v-2.8h-5.3
	c-0.4,0-0.7-0.3-0.7-0.7l0,0V275c0-0.4,0.3-0.7,0.7-0.7h0h9.4C194.2,274.3,194.5,274.6,194.5,275z"/>
<path class="st2" d="M221,288.3h-3.4c-0.4,0-0.7-0.3-0.7-0.7l0,0v-24.4c0-0.4,0.3-0.7,0.7-0.7h0h3.4c0.4,0,0.7,0.3,0.7,0.7l0,0v24.4
	C221.7,288,221.4,288.3,221,288.3z"/>
<path class="st2" d="M249.8,268.8c-0.4,0.6-0.5,1.4-0.1,2c0.4,1,1.9,1.6,3.2,2l2,0.6l0,0h0.1h0.1l0,0c2.2,0.6,5.1,1.8,6.3,4.8
	c1,2.2,0.7,4.8-0.8,6.8c-2,2.2-4.8,3.4-7.8,3.3c-0.6,0-1.2,0-1.8-0.1c-2.7-0.3-5.1-1.7-6.6-4c-0.3-0.5-0.2-1.1,0.3-1.4
	c0.1-0.1,0.2-0.1,0.2-0.1l2.6-1c0.4-0.2,0.9,0,1.2,0.3c0.8,0.8,1.9,1.4,3,1.5c2.1,0.3,4.3-0.3,5.1-1.4c0.4-0.6,0.5-1.4,0.1-2
	c-0.4-1-2-1.6-3.3-2l-1.9-0.5l0,0h-0.1c-2.2-0.6-5.4-1.8-6.6-4.9c-1-2.2-0.7-4.8,0.8-6.8c1.9-2.4,5.8-3.7,9.6-3.2
	c2.7,0.3,5.2,1.8,6.6,4.1c0.3,0.5,0.1,1.1-0.3,1.4c0,0-0.1,0.1-0.1,0.1l-2.7,1.1c-0.4,0.2-0.9,0-1.1-0.3c-0.8-0.9-1.8-1.4-3-1.5
	C252.8,267.1,250.6,267.7,249.8,268.8z"/>
<path class="st2" d="M301,263.3v3.4c0,0.4-0.3,0.7-0.7,0.7h0H293v20.3c0,0.4-0.3,0.7-0.7,0.7h0h-3.4c-0.4,0-0.7-0.3-0.7-0.7v0v-20.3
	h-7.4c-0.4,0-0.7-0.3-0.7-0.7v0v-3.4c0-0.4,0.3-0.7,0.7-0.7h0h19.6C300.7,262.7,301,263,301,263.3z"/>
<path class="st2" d="M340.6,286.7c0.3,0.5,0.3,1.1-0.2,1.5c-0.2,0.1-0.4,0.2-0.6,0.2h-3.3c-0.3,0-0.7-0.2-0.9-0.4l-4.1-5.6h-5.8v5.3
	c0,0.4-0.3,0.7-0.7,0.7h0h-3.4c-0.4,0-0.7-0.3-0.7-0.7v0v-24.4c0-0.4,0.3-0.7,0.7-0.7h0h9.6c2.6,0,5.1,0.9,7,2.6
	c3.7,4.1,3.7,10.4,0,14.5c-0.5,0.5-1.1,0.9-1.7,1.3L340.6,286.7z M325.6,277.6h5.7c1.3,0,2.6-0.5,3.6-1.3c1.7-2.2,1.7-5.3,0-7.6
	c-1-0.8-2.3-1.3-3.6-1.3h-5.7L325.6,277.6z"/>
<path class="st2" d="M382.2,264.2l-9.7,14.5l-0.5,0.7v8.3c0,0.4-0.3,0.7-0.7,0.7h0h-3.4c-0.4,0-0.7-0.3-0.7-0.7v0v-8.3l-0.5-0.7
	l-9.7-14.5c-0.3-0.5-0.2-1.1,0.3-1.4c0.2-0.1,0.4-0.2,0.5-0.2h3.4c0.3,0,0.6,0.2,0.8,0.4l7.6,11.4l7.6-11.4c0.2-0.3,0.5-0.4,0.8-0.4
	h3.4c0.6,0,1,0.5,1,1C382.3,263.9,382.3,264.1,382.2,264.2z"/>
<polygon class="st3" points="194.3,74.3 194.2,74 194.5,74.2 194.6,74.3 194.5,74.4 194.3,74.5 "/>
<path class="st3" d="M194.4,74.3L194.4,74.3z"/>
<path class="st4" d="M194.3,74.3c0.2-0.8,5.8-19.4,5.9-37.5c0-8.8-1.3-16.1-3.8-21.6c-0.6-1.2-1.2-2.4-2-3.6v-0.1v-0.1
	c1.6-2.4,3.6-4.5,5.9-6.2c4.6-3.4,10.2-5.3,15.9-5.3h0.1c3.3,0,6.6,0.6,9.6,1.8c0.7,0.3,1.4,0.5,1.9,0.8c2.5,1.2,4.8,2.7,6.9,4.6
	l0.1,0.1l-0.1,0.1c-0.5,0.4-0.9,0.9-1.3,1.3l-0.2,0.2l-0.5,0.6l-0.3,0.3l-0.5,0.6l-0.3,0.4l-0.4,0.5l-0.1,0.2
	c-0.3,0.4-0.6,0.9-0.9,1.3l-0.2,0.3l-0.3,0.6l-0.3,0.4l-0.3,0.6l-0.2,0.3l-0.2,0.1h0.1l-0.3,0.5l-0.2,0.4c-0.2,0.4-0.3,0.7-0.5,1.1
	l-0.2,0.5c-0.1,0.2-0.3,0.9-0.4,1.1l-0.2,0.6l-0.2,0.5c-0.1,0.2-0.1,0.4-0.2,0.6s-0.3,1.1-0.3,1.1c-0.1,0.4-0.1,0.7-0.2,1
	c0,0.1-0.1,0.5-0.1,0.5c0,0.2-0.1,0.4-0.1,0.7s0,0.4-0.1,0.5s0,0.4-0.1,0.7v0.5c0,0.2,0,0.5,0,0.7v0.4c0,0.4,0,0.8,0,1.1v0.4
	c0,0.3,0,0.5,0,0.8v0.4c0,0.3,0.1,0.5,0.1,0.8l0.1,0.5c0,0.3,0.1,0.5,0.1,0.8l0.1,0.4c0.1,0.4,0.2,0.8,0.2,1.2v0.2
	c0.1,0.4,0.2,0.7,0.3,1l0.1,0.4c0.1,0.3,0.2,0.5,0.2,0.8l0.1,0.4c0.1,0.3,0.2,0.5,0.3,0.8l0.1,0.4c0.1,0.4,0.3,0.8,0.5,1.1
	s0.4,0.7,0.6,1.1l0.2,0.3l0.4,0.8l0.2,0.4l0.5,0.8l0.2,0.3c0.2,0.4,0.5,0.7,0.7,1.1s0.5,0.7,0.8,1.1l0.2,0.2l0.6,0.8L233,45l0.7,0.8
	l0.2,0.2l0.9,1.1l0.1,0.1l-0.1,0.1c-2.7,3-5.6,5.8-8.8,8.4c-8,6.2-16.5,11.6-25.6,16c-3.5,1.7-5.8,2.7-5.9,2.8l-0.2,0.1L194.3,74.3z
	"/>
<path class="st4" d="M234.7,47.2l-0.9-1.1l-0.2-0.2l-0.7-0.8l-0.2-0.3l-0.6-0.8l-0.2-0.3c-0.2-0.3-0.5-0.7-0.7-1v0
	c-0.2-0.4-0.5-0.7-0.7-1.1l-0.2-0.3l-0.5-0.8l-0.2-0.4l-0.4-0.8l-0.2-0.3c-0.2-0.4-0.4-0.7-0.6-1.1s-0.3-0.8-0.5-1.1l-0.1-0.4
	c-0.1-0.3-0.2-0.5-0.3-0.8l-0.1-0.4c-0.1-0.3-0.2-0.5-0.2-0.8l-0.1-0.4c-0.1-0.3-0.2-0.6-0.2-1l-0.1-0.2c-0.1-0.4-0.2-0.8-0.2-1.2
	l-0.1-0.4c0-0.3-0.1-0.5-0.1-0.8s0-0.3-0.1-0.5s-0.1-0.5-0.1-0.7s0-0.3,0-0.5s0-0.5,0-0.8c0-0.1,0-0.2,0-0.4c0-0.4,0-0.8,0-1.1
	c0-0.1,0-0.3,0-0.4s0-0.5,0-0.7s0-0.3,0-0.5s0-0.4,0.1-0.7s0-0.4,0.1-0.5s0.1-0.4,0.1-0.7s0-0.3,0.1-0.5c0.1-0.4,0.1-0.7,0.2-1.1
	c0-0.2,0.1-0.3,0.1-0.5s0.1-0.4,0.1-0.6s0.1-0.4,0.2-0.6l0.2-0.5l0.2-0.6l0.2-0.5c0.1-0.2,0.1-0.4,0.2-0.6l0.2-0.5
	c0.1-0.4,0.3-0.7,0.5-1.1l0.2-0.4l0.3-0.6l0.2-0.4l0.3-0.6l0.2-0.4l0.4-0.6l0.2-0.3c0.3-0.4,0.6-0.9,0.9-1.3l0.1-0.2l0.5-0.6
	l0.2-0.3l0.5-0.6l0.3-0.3l0.5-0.6l0.2-0.2c0.4-0.4,0.9-0.9,1.3-1.3c-2-1.9-4.4-3.4-6.9-4.6c-0.6-0.3-1.3-0.5-1.9-0.8
	c-3.1-1.2-6.4-1.8-9.8-1.7h-0.1c-5.7,0-11.3,1.9-15.9,5.3c-2.3,1.7-4.3,3.8-5.9,6.2c0.8,1.1,1.4,2.3,2,3.6
	c2.9,6.1,3.9,13.8,3.9,21.6l0,0c0,18.4-5.8,37.3-5.9,37.5c0.2-0.1,2.4-1,5.9-2.8c9.1-4.4,17.7-9.8,25.6-16
	C229,53,232,50.2,234.7,47.2L234.7,47.2L234.7,47.2z"/>
<polygon class="st0" points="274.9,74.4 274.7,74.3 275.2,74.1 275,74.4 275,74.5 "/>
<path class="st0" d="M275,74.3L275,74.3z"/>
<path class="st5" d="M274.9,74.4c-0.1,0-2.3-1-5.9-2.8c-9.1-4.4-17.7-9.8-25.6-16c-3.2-2.5-6.1-5.3-8.8-8.3l-0.1-0.1l0.1-0.1
	l0.9-1.1l0.1-0.2l0.7-0.9l0.2-0.3l0.6-0.8l0.2-0.3c0.2-0.3,0.5-0.7,0.7-1s0.5-0.8,0.8-1.1l0.2-0.3l0.5-0.8l0.2-0.3
	c0.2-0.3,0.3-0.6,0.5-0.8l0.2-0.4c0.2-0.4,0.4-0.7,0.6-1.1s0.3-0.8,0.5-1.1l0.1-0.4c0.1-0.3,0.2-0.5,0.3-0.8l0.1-0.4
	c0.1-0.3,0.2-0.5,0.2-0.8l0.1-0.4c0.1-0.3,0.2-0.7,0.3-1v-0.1c0.1-0.5,0.2-0.8,0.3-1.2l0.1-0.4c0-0.3,0.1-0.5,0.1-0.8l0.1-0.4
	c0-0.3,0.1-0.5,0.1-0.8v-0.4c0-0.3,0-0.6,0-0.8v-0.4c0-0.4,0-0.8,0-1.1v-0.4c0-0.2,0-0.5,0-0.8s0-0.3,0-0.5s0-0.5-0.1-0.7
	s0-0.3-0.1-0.5s-0.1-0.4-0.1-0.6l-0.1-0.5c-0.1-0.4-0.1-0.7-0.2-1.1l-0.1-0.5c-0.1-0.2-0.1-0.4-0.2-0.6l-0.1-0.5
	c-0.1-0.2-0.1-0.4-0.2-0.6l-0.2-0.6l-0.2-0.6l-0.2-0.5l-0.2-0.5c-0.1-0.3-0.3-0.7-0.4-1l-0.2-0.5l-0.2-0.5l-0.3-0.5l-0.3-0.6
	l-0.2-0.4l-0.3-0.6l-0.2-0.4c-0.2-0.4-0.5-0.8-0.8-1.1l-0.2-0.3l-0.4-0.6l-0.3-0.4l-0.4-0.5l-0.3-0.4l-0.5-0.5l-0.3-0.3
	c-0.4-0.4-0.7-0.7-1.1-1.1l-0.3-0.2l0.1-0.1c2.1-1.9,4.4-3.4,6.9-4.6c0.6-0.3,1.2-0.5,1.9-0.8c8.6-3.3,18.3-1.9,25.7,3.6
	c2.3,1.7,4.3,3.8,5.9,6.2v0.1v0.1c-0.8,1.1-1.4,2.3-2,3.6c-9.6,20.5,1.9,58.7,2,59.1l0.1,0.2L274.9,74.4z"/>
<path class="st5" d="M272.9,15.1c0.6-1.2,1.2-2.4,2-3.6c-1.6-2.4-3.6-4.4-5.9-6.2c-7.4-5.5-17-6.8-25.6-3.5
	c-0.6,0.2-1.3,0.5-1.9,0.8c-2.5,1.2-4.8,2.7-6.9,4.6l0,0l0.2,0.2c0.4,0.3,0.7,0.7,1.1,1.1l0.3,0.3l0.5,0.5l0.3,0.4l0.4,0.5l0.3,0.4
	l0.4,0.6l0.2,0.3c0.3,0.4,0.5,0.7,0.8,1.1l0.2,0.4l0.4,0.6l0.2,0.4l0.3,0.6l0.2,0.4l0.3,0.6L241,16c0.1,0.3,0.3,0.7,0.4,1l0.2,0.5
	l0.2,0.6l0.2,0.5l0.2,0.6c0.1,0.2,0.1,0.4,0.2,0.6s0.1,0.4,0.1,0.5s0.1,0.4,0.2,0.6s0.1,0.3,0.1,0.5c0.1,0.4,0.1,0.7,0.2,1.1
	c0,0.2,0,0.3,0.1,0.5s0.1,0.5,0.1,0.7s0,0.3,0.1,0.5s0,0.5,0.1,0.7s0,0.3,0,0.5s0,0.5,0,0.8s0,0.3,0,0.4c0,0.4,0,0.8,0,1.1
	c0,0.1,0,0.2,0,0.3c0,0.3,0,0.6,0,0.8s0,0.3,0,0.4s0,0.5-0.1,0.8s0,0.3-0.1,0.4s-0.1,0.5-0.1,0.8c0,0.1,0,0.2-0.1,0.4
	c-0.1,0.4-0.2,0.8-0.2,1.2V33c-0.1,0.3-0.2,0.7-0.3,1l-0.1,0.4c-0.1,0.3-0.2,0.5-0.2,0.8l-0.1,0.4c-0.1,0.3-0.2,0.5-0.3,0.8
	l-0.1,0.4c-0.2,0.4-0.3,0.8-0.5,1.1s-0.4,0.7-0.6,1.1l-0.2,0.4l-0.4,0.8l-0.2,0.4l-0.5,0.8l-0.2,0.3c-0.2,0.4-0.5,0.7-0.7,1.1v0.1
	c-0.2,0.3-0.5,0.7-0.7,1l-0.2,0.3l-0.6,0.8l-0.2,0.3l-0.7,0.9l-0.1,0.2l-0.9,1.1l0,0c2.7,3,5.6,5.8,8.8,8.3c8,6.2,16.5,11.6,25.6,16
	c3.4,1.7,5.7,2.7,5.9,2.8C274.8,74,263.2,35.9,272.9,15.1z"/>
<polygon class="st6" points="194.2,74.3 194.6,74.1 194.5,74.4 194.5,74.5 "/>
<path class="st6" d="M194.4,74.3L194.4,74.3z"/>
<path class="st7" d="M194.4,74.4c0,0-2.3-1-5.9-2.8c-9.8-4.9-33.4-17.9-40.8-33.8c-6.1-13.2-0.2-29,13.3-35.3
	c9-4.3,19.6-3.2,27.6,2.7c2.3,1.7,4.3,3.8,5.9,6.2v0.1v0.1c-0.8,1.1-1.4,2.3-2,3.6c-2.6,5.5-3.9,12.8-3.8,21.6
	c0.1,18.2,5.6,36.7,5.9,37.5l0.1,0.2L194.4,74.4z"/>
<path class="st7" d="M188.5,36.8c0-7.8,1-15.5,3.9-21.6c0.6-1.2,1.2-2.4,2-3.6c-1.6-2.4-3.6-4.4-5.9-6.2c-8-5.9-18.5-7-27.5-2.7
	c-13.4,6.3-19.4,22-13.2,35.2c7.3,15.6,29.9,28.4,40.7,33.7c3.4,1.7,5.7,2.7,5.9,2.8c-0.1-0.2-5.8-19.1-5.9-37.4L188.5,36.8z"/>
<path class="st8" d="M194.4,74.4L194.4,74.4L194.4,74.4c-0.4-1.2-5.9-19.5-5.9-37.5c0-9,1.3-16.2,3.9-21.8c0.6-1.2,1.2-2.4,2-3.6
	l0.1-0.1l0.1,0.1c0.8,1.1,1.4,2.3,2,3.6c2.6,5.5,3.9,12.8,3.9,21.6C200.3,55,194.7,73.6,194.4,74.4L194.4,74.4L194.4,74.4
	L194.4,74.4z"/>
<path class="st8" d="M200.3,36.7c0-7.8-1-15.4-3.9-21.6c-0.6-1.2-1.2-2.4-2-3.6c-0.8,1.1-1.4,2.3-2,3.6c-2.9,6.2-3.9,13.9-3.9,21.6
	v0.1c0.1,18.4,5.8,37.2,5.9,37.4l0,0C194.5,74.1,200.3,55.2,200.3,36.7L200.3,36.7z"/>
<polygon class="st9" points="274.8,74.3 274.8,74.3 274.8,74.1 275.1,74.3 275,74.4 274.9,74.4 "/>
<path class="st9" d="M274.9,74.3L274.9,74.3z"/>
<path class="st10" d="M274.9,74.3c0.2-0.8,5.8-19.3,5.9-37.3v-0.3c0-8.7-1.3-16-3.8-21.4c-0.6-1.2-1.2-2.4-2-3.6v-0.1v-0.1
	c1.6-2.4,3.6-4.5,5.9-6.2c4.6-3.4,10.2-5.3,15.9-5.3h0.1c4,0,7.9,0.9,11.6,2.6c13.5,6.3,19.4,22.1,13.3,35.3
	c-7.4,15.9-31,28.9-40.8,33.8c-3.4,1.7-5.6,2.7-5.9,2.8l-0.2,0.1L274.9,74.3z"/>
<path class="st10" d="M308.3,2.7c-3.6-1.7-7.6-2.6-11.6-2.6h-0.1c-5.7,0-11.3,1.9-15.9,5.3c-2.3,1.7-4.3,3.8-5.9,6.2
	c0.8,1.1,1.4,2.3,2,3.6c2.9,6.1,3.9,13.8,3.9,21.5v0.3c-0.1,18.4-5.8,37.1-5.8,37.4c0.2-0.1,2.4-1,5.9-2.8
	c10.8-5.4,33.5-18.1,40.7-33.7C327.7,24.7,321.8,8.9,308.3,2.7z"/>
<path class="st11" d="M274.9,74.4c-0.2-0.4-11.7-38.7-2.1-59.3c0.6-1.2,1.2-2.4,2-3.6l0.1-0.1l0.1,0.1c0.8,1.1,1.4,2.3,2,3.6
	c2.6,5.5,3.9,12.7,3.9,21.5v0.3C280.8,55,275.2,73.6,274.9,74.4L274.9,74.4L274.9,74.4L274.9,74.4z"/>
<path class="st11" d="M280.8,36.6c0-7.7-1-15.4-3.9-21.5c-0.6-1.2-1.2-2.4-2-3.6c-0.8,1.1-1.4,2.3-2,3.6c-9.7,20.7,1.9,58.8,2,59.2
	l0,0c0.1-0.2,5.8-19,5.9-37.4L280.8,36.6z"/>
<path class="st12" d="M234.6,47.3c-0.3-0.3-0.6-0.7-0.9-1.1l-0.2-0.2l-0.7-0.8l-0.2-0.3l-0.6-0.8l-0.2-0.3c-0.2-0.3-0.5-0.7-0.7-1
	s-0.5-0.8-0.8-1.1l-0.2-0.3l-0.5-0.8l-0.2-0.3l-0.4-0.8l-0.2-0.3c-0.2-0.4-0.4-0.7-0.6-1.1s-0.3-0.8-0.5-1.1l-0.1-0.4
	c-0.1-0.3-0.2-0.5-0.3-0.8l-0.1-0.4c-0.1-0.3-0.2-0.5-0.2-0.8l-0.1-0.4c-0.1-0.3-0.2-0.7-0.2-1l-0.1-0.2c-0.1-0.4-0.2-0.8-0.2-1.2
	l-0.1-0.4c0-0.3-0.1-0.5-0.1-0.8L226,30c0-0.3-0.1-0.5-0.1-0.8v-0.5c0-0.3,0-0.5,0-0.8v-0.4c0-0.4,0-0.8,0-1.1V26c0-0.2,0-0.5,0-0.7
	v-0.5c0-0.2,0-0.4,0.1-0.7c0-0.2,0-0.4,0.1-0.5s0.1-0.4,0.1-0.7c0,0,0.1-0.4,0.1-0.5c0.1-0.4,0.1-0.7,0.2-1.1l0.1-0.5
	c0-0.2,0.1-0.4,0.1-0.6s0.1-0.4,0.2-0.6l0.2-0.5l0.2-0.6l0.2-0.5l0.2-0.6l0.2-0.5c0.1-0.4,0.3-0.8,0.5-1.1l0.2-0.4l0.3-0.5l0.3-0.5
	l0.3-0.6l0.2-0.4l0.4-0.6l0.2-0.3c0.3-0.4,0.6-0.9,0.9-1.3l0.1-0.2l0.4-0.5l0.2-0.1l-0.1-0.1l0.2-0.3l0.5-0.6l0.3-0.3l0.5-0.6
	l0.2-0.2c0.4-0.4,0.9-0.9,1.3-1.3l0.1-0.1l0.2,0.2c0.4,0.3,0.7,0.7,1.1,1.1l0.3,0.3l0.5,0.5l0.3,0.4l0.4,0.5l0.2,0.3l0.5,0.6
	l0.2,0.3c0.3,0.4,0.5,0.8,0.8,1.1l0.2,0.4l0.3,0.5l0.3,0.5l0.3,0.6l0.2,0.4l0.3,0.6l0.2,0.5c0.1,0.3,0.3,0.7,0.4,1l0.2,0.5l0.2,0.7
	l0.1,0.4l0.2,0.6c0.1,0.2,0.1,0.4,0.2,0.6l0.1,0.5c0.1,0.2,0.1,0.4,0.2,0.6l0.1,0.5c0.1,0.4,0.1,0.7,0.2,1.1l0.1,0.5
	c0,0.2,0.1,0.5,0.1,0.7s0,0.3,0.1,0.5s0,0.5,0.1,0.7s0,0.3,0,0.5s0,0.5,0,0.8v0.4c0,0.4,0,0.8,0,1.1v0.3c0,0.3,0,0.6,0,0.9v0.4
	c0,0.2,0,0.5-0.1,0.8l-0.1,0.4c0,0.3-0.1,0.5-0.1,0.8l-0.1,0.4c-0.1,0.4-0.2,0.8-0.2,1.2V33c-0.1,0.3-0.2,0.7-0.3,1l-0.1,0.4
	c-0.1,0.3-0.2,0.5-0.2,0.8l-0.1,0.4c-0.1,0.3-0.2,0.5-0.3,0.8l-0.1,0.4c-0.2,0.4-0.3,0.8-0.5,1.1s-0.4,0.8-0.6,1.1l-0.2,0.4
	l-0.4,0.8l-0.2,0.4l-0.5,0.8l-0.2,0.3c-0.2,0.4-0.5,0.7-0.7,1.1s-0.5,0.7-0.8,1.1l-0.2,0.3l-0.6,0.8l-0.2,0.3l-0.7,0.9l-0.1,0.1
	c-0.3,0.4-0.6,0.8-1,1.1l-0.1,0.1L234.6,47.3z"/>
<path class="st12" d="M233.4,8.5l-0.2,0.2l-0.5,0.6l-0.3,0.3l-0.5,0.6l-0.2,0.3l-0.5,0.6l-0.1,0.2c-0.3,0.4-0.6,0.9-0.9,1.3
	l-0.2,0.3l-0.4,0.6l-0.2,0.4l-0.3,0.6l-0.2,0.4l-0.3,0.6l-0.2,0.4c-0.2,0.4-0.3,0.7-0.5,1.1l-0.2,0.5c-0.1,0.2-0.1,0.4-0.2,0.6
	l-0.2,0.5l-0.2,0.6l-0.2,0.5c-0.1,0.2-0.1,0.4-0.2,0.6s-0.1,0.4-0.1,0.6s-0.1,0.3-0.1,0.5c-0.1,0.4-0.1,0.7-0.2,1.1
	c0,0.2-0.1,0.3-0.1,0.5s-0.1,0.4-0.1,0.7s0,0.4-0.1,0.5s0,0.4-0.1,0.7s0,0.3,0,0.5s0,0.5,0,0.7s0,0.3,0,0.4c0,0.4,0,0.8,0,1.1
	c0,0.1,0,0.2,0,0.4c0,0.3,0,0.5,0,0.8s0,0.3,0,0.5s0,0.5,0.1,0.7s0,0.3,0.1,0.5s0.1,0.5,0.1,0.8l0.1,0.4c0.1,0.4,0.2,0.8,0.2,1.2
	l0.1,0.2c0.1,0.3,0.2,0.6,0.2,1l0.1,0.4c0.1,0.3,0.2,0.5,0.2,0.8l0.1,0.4c0.1,0.3,0.2,0.5,0.3,0.8l0.1,0.4c0.2,0.4,0.3,0.8,0.5,1.1
	s0.4,0.8,0.6,1.1l0.2,0.3l0.4,0.8l0.2,0.4l0.5,0.8l0.2,0.3c0.2,0.4,0.5,0.7,0.7,1.1v0c0.2,0.3,0.5,0.7,0.7,1L232,44l0.6,0.8l0.2,0.3
	l0.7,0.8l0.2,0.2l0.9,1.1l0,0l0.9-1.1l0.1-0.2l0.7-0.9l0.2-0.3l0.6-0.8l0.2-0.3c0.2-0.3,0.5-0.7,0.7-1v-0.1c0.2-0.4,0.5-0.7,0.7-1.1
	l0.2-0.3l0.5-0.8l0.2-0.4l0.4-0.8l0.2-0.4c0.2-0.4,0.4-0.7,0.6-1.1s0.3-0.8,0.5-1.1l0.1-0.4c0.1-0.3,0.2-0.5,0.3-0.8l0.1-0.4
	c0.1-0.3,0.2-0.5,0.2-0.8l0.1-0.4c0.1-0.3,0.2-0.7,0.3-1v-0.2c0.1-0.4,0.2-0.8,0.2-1.2c0-0.1,0-0.2,0.1-0.4c0-0.3,0.1-0.5,0.1-0.8
	s0-0.3,0.1-0.4s0.1-0.5,0.1-0.8s0-0.3,0-0.4s0-0.6,0-0.8c0-0.1,0-0.2,0-0.3c0-0.4,0-0.8,0-1.1c0-0.1,0-0.3,0-0.4s0-0.5,0-0.8
	s0-0.3,0-0.5s0-0.5-0.1-0.7s0-0.3-0.1-0.5S243,23.2,243,23s0-0.3-0.1-0.5c-0.1-0.4-0.1-0.7-0.2-1.1c0-0.2-0.1-0.3-0.1-0.5
	s-0.1-0.4-0.2-0.6s-0.1-0.4-0.1-0.5s-0.1-0.4-0.2-0.6l-0.2-0.6l-0.2-0.5l-0.2-0.6l-0.2-0.5c-0.1-0.3-0.3-0.7-0.4-1l-0.2-0.5
	l-0.3-0.6l-0.2-0.4l-0.3-0.6l-0.2-0.4l-0.4-0.6l-0.2-0.4c-0.2-0.4-0.5-0.8-0.8-1.1l-0.2-0.3l-0.4-0.6l-0.3-0.4L237,9.7l-0.3-0.4
	l-0.5-0.5l-0.3-0.3c-0.4-0.4-0.7-0.7-1.1-1.1l-0.2-0.2C234.2,7.7,233.8,8.1,233.4,8.5z"/>
<path class="st3" d="M-1518.6,1805.4L-1518.6,1805.4L-1518.6,1805.4z"/>
<path class="st0" d="M-1259.4,1805.4L-1259.4,1805.4L-1259.4,1805.4z"/>
<path class="st6" d="M-1518.5,1805.4L-1518.5,1805.4L-1518.5,1805.4z"/>
<path class="st9" d="M-1259.4,1805.4L-1259.4,1805.4z"/>
</svg>
